# xmcd CD database file
#
# Track frame offsets:
#	150
#	12777
#	33204
#	57512
#	78015
#	96966
#	118401
#	135722
#	155300
#	173560
#
# Disc length: 2679 seconds
#
# Revision: 0
# Processed by: cddbd v1.4PL0 Copyright (c) Steve Scherf et al.
# Submitted via: CDex 1.40Release
#
DISCID=740a750a
DTITLE=Honeybrowne - Finding Shade
DYEAR=2001
DGENRE=Country
TTITLE0=Love The One You're With
TTITLE1=Hearts On Fire
TTITLE2=Julie At The Bar
TTITLE3=Deeper Shade Of Blue
TTITLE4=Tokyo Tan
TTITLE5=Annie In The Moonlight
TTITLE6=Inside
TTITLE7=Texas Angel
TTITLE8=Change
TTITLE9=Parkwood
EXTD=YEAR: 2001 ID3G: 2
EXTT0=
EXTT1=
EXTT2=
EXTT3=
EXTT4=
EXTT5=
EXTT6=
EXTT7=
EXTT8=
EXTT9=
PLAYORDER=
